<svg width="211" height="43" viewBox="0 0 211 43" fill="none" xmlns="http://www.w3.org/2000/svg">
<g clip-path="url(#clip0_6_12)">
<g filter="url(#filter0_dd_6_12)">
<path d="M26.5232 3H8.76707C3.92515 3 0 7.00234 0 11.9395V30.0447C0 34.9819 3.92515 38.9842 8.76707 38.9842H26.5232C31.3651 38.9842 35.2902 34.9819 35.2902 30.0447V11.9395C35.2902 7.00234 31.3651 3 26.5232 3Z" fill="white"/>
<path d="M26.5232 3H8.76707C3.92515 3 0 7.00234 0 11.9395V30.0447C0 34.9819 3.92515 38.9842 8.76707 38.9842H26.5232C31.3651 38.9842 35.2902 34.9819 35.2902 30.0447V11.9395C35.2902 7.00234 31.3651 3 26.5232 3Z" fill="url(#paint0_linear_6_12)"/>
<path d="M26.5232 3H8.76707C3.92515 3 0 7.00234 0 11.9395V30.0447C0 34.9819 3.92515 38.9842 8.76707 38.9842H26.5232C31.3651 38.9842 35.2902 34.9819 35.2902 30.0447V11.9395C35.2902 7.00234 31.3651 3 26.5232 3Z" stroke="#D0D5DD" stroke-width="0.2"/>
<path d="M16.9289 15.5409C21.7629 13.5806 27.0494 15.1287 29.4499 17.4991C29.9701 18.0128 30.4119 18.5338 30.7902 19.0516C31.0059 17.8358 31.0234 16.6248 30.8158 15.4536C30.0574 11.1773 26.1009 8.75473 22.5539 10.0061C19.0229 11.2519 17.6457 13.6732 17.6457 13.6732C17.6457 13.6732 16.2685 11.2519 12.7374 10.0061C9.1901 8.75473 5.23363 11.1776 4.47541 15.4536C3.91567 18.6095 4.97564 22.0548 7.22486 25.0995C7.69859 25.2618 8.1952 25.3837 8.72111 25.4539C11.8719 25.8763 13.0046 25.0171 14.3356 24.4418C15.2194 24.06 15.8844 24.4934 15.8521 24.7972C15.802 25.2679 14.0598 26.0723 14.4335 26.2413C15.9085 26.9085 17.7248 26.9141 19.0937 25.7221C20.7946 24.2411 21.4309 25.2534 21.4309 25.2534C21.4309 25.2534 20.5862 27.4507 18.0425 28.5417C15.9202 29.4519 13.6965 29.6762 11.6643 29.4431C13.4169 30.7063 15.4295 31.7652 17.6457 32.5209C23.9817 30.3598 28.6623 25.7301 30.3124 20.8898C29.1946 19.7651 27.8233 19.0679 26.1889 18.8153C23.0467 18.3295 21.8979 19.166 20.5558 19.7143C19.6646 20.0785 19.0084 19.6317 19.0467 19.3286C19.1057 18.8589 20.8633 18.0897 20.4929 17.9131C19.0312 17.2164 17.2151 17.1742 15.8234 18.3383C14.0942 19.7849 13.4775 18.76 13.4775 18.76C13.4775 18.76 14.3644 16.5806 16.9289 15.5409ZM15.7262 21.5637H16.947V20.319H18.3438V21.5637H19.5645V22.9881H18.3438V24.2327H16.947V22.9881H15.7262V21.5637Z" fill="url(#paint1_linear_6_12)"/>
<path d="M15.7263 21.5638H16.947V20.319H18.3438V21.5638H19.5645V22.9881H18.3529C20.1529 23.9154 23.4584 25.2952 27.4306 25.9089C28.7378 24.3322 29.7207 22.6247 30.3122 20.8898C29.1943 19.7651 27.823 19.068 26.1887 18.8153C23.0465 18.3295 21.8976 19.1661 20.5556 19.7143C19.6644 20.0785 19.0081 19.6317 19.0464 19.3286C19.1055 18.8589 20.8631 18.0897 20.4927 17.9131C19.031 17.2164 17.2149 17.1742 15.8232 18.3383C14.0939 19.7849 13.4772 18.76 13.4772 18.76C13.4772 18.76 14.3645 16.5804 16.9286 15.5405C21.7626 13.5802 27.0491 15.1283 29.4496 17.4987C29.9698 18.0122 30.4115 18.5333 30.7899 19.0511C31.0057 17.8352 31.0232 16.6242 30.8156 15.453C30.0571 11.1768 26.1006 8.75422 22.5536 10.0056C19.0226 11.2514 17.6454 13.6726 17.6454 13.6726C17.6454 13.6726 16.2682 11.2514 12.7371 10.0056C10.7113 9.29075 8.55257 9.77624 6.93176 11.1193C7.69318 12.7816 8.58509 14.3348 11.1258 17.4585C13.1915 19.9988 15.7263 21.5638 15.7263 21.5638Z" fill="url(#paint2_linear_6_12)"/>
<path opacity="0.31" d="M26.8306 11.5428C23.4949 9.83396 20.0522 12.4928 18.9603 13.8969C20.8434 13.4924 22.4912 13.2849 24.5763 13.7317C27.6609 14.3925 28.8153 15.5282 30.1925 17.206C29.9491 14.0972 28.0235 12.1539 26.8306 11.5428Z" fill="url(#paint3_linear_6_12)"/>
</g>
<mask id="path-7-outside-1_6_12" maskUnits="userSpaceOnUse" x="119" y="4" width="92" height="34" fill="black">
<rect fill="white" x="119" y="4" width="92" height="34"/>
<path d="M147.093 17.4316H140.366C140.277 16.741 140.093 16.1177 139.815 15.5617C139.537 15.0057 139.169 14.5304 138.712 14.1358C138.254 13.7412 137.712 13.4408 137.084 13.2345C136.465 13.0193 135.779 12.9117 135.026 12.9117C133.69 12.9117 132.537 13.239 131.569 13.8937C130.609 14.5483 129.869 15.4945 129.349 16.7321C128.838 17.9696 128.582 19.4673 128.582 21.2251C128.582 23.0545 128.843 24.5881 129.363 25.8257C129.892 27.0543 130.632 27.9825 131.582 28.6103C132.542 29.2291 133.676 29.5384 134.986 29.5384C135.721 29.5384 136.389 29.4443 136.99 29.256C137.6 29.0676 138.133 28.7941 138.591 28.4354C139.057 28.0677 139.438 27.6238 139.734 27.1036C140.039 26.5745 140.25 25.9781 140.366 25.3145L147.093 25.3548C146.976 26.5745 146.622 27.7762 146.03 28.96C145.447 30.1438 144.644 31.2244 143.622 32.202C142.6 33.1705 141.353 33.9418 139.882 34.5157C138.42 35.0897 136.743 35.3767 134.851 35.3767C132.358 35.3767 130.125 34.8296 128.152 33.7355C126.188 32.6324 124.636 31.0271 123.498 28.9197C122.359 26.8122 121.789 24.2473 121.789 21.2251C121.789 18.1938 122.368 15.6245 123.524 13.517C124.681 11.4095 126.246 9.80871 128.219 8.71461C130.192 7.6205 132.403 7.07345 134.851 7.07345C136.519 7.07345 138.062 7.30662 139.479 7.77296C140.896 8.23033 142.142 8.90293 143.218 9.79077C144.294 10.6696 145.169 11.7503 145.841 13.0327C146.514 14.3152 146.931 15.7814 147.093 17.4316ZM156.728 35.3498C155.409 35.3498 154.239 35.13 153.217 34.6906C152.203 34.2422 151.401 33.5696 150.809 32.6728C150.226 31.767 149.934 30.6326 149.934 29.2694C149.934 28.1215 150.136 27.1529 150.54 26.3638C150.943 25.5746 151.499 24.9333 152.208 24.4401C152.916 23.9469 153.732 23.5747 154.656 23.3236C155.58 23.0635 156.566 22.8886 157.615 22.7989C158.79 22.6913 159.736 22.5792 160.454 22.4626C161.171 22.3371 161.691 22.1622 162.014 21.938C162.346 21.7048 162.512 21.3775 162.512 20.956V20.8888C162.512 20.1982 162.274 19.6646 161.799 19.288C161.324 18.9113 160.682 18.723 159.875 18.723C159.005 18.723 158.306 18.9113 157.777 19.288C157.248 19.6646 156.911 20.1848 156.768 20.8484L150.701 20.6332C150.88 19.3776 151.342 18.2566 152.087 17.2701C152.84 16.2747 153.871 15.4945 155.181 14.9295C156.499 14.3555 158.082 14.0685 159.929 14.0685C161.247 14.0685 162.463 14.2255 163.575 14.5394C164.687 14.8443 165.655 15.2927 166.48 15.8846C167.305 16.4675 167.942 17.1849 168.391 18.0369C168.848 18.8889 169.077 19.8619 169.077 20.956V35H162.889V32.1213H162.727C162.36 32.8208 161.889 33.4127 161.315 33.8969C160.75 34.3812 160.082 34.7444 159.31 34.9865C158.548 35.2287 157.687 35.3498 156.728 35.3498ZM158.759 31.0451C159.467 31.0451 160.104 30.9016 160.669 30.6146C161.243 30.3276 161.7 29.933 162.041 29.4308C162.382 28.9197 162.552 28.3278 162.552 27.6552V25.6912C162.364 25.7898 162.135 25.8795 161.866 25.9602C161.606 26.0409 161.319 26.1171 161.005 26.1889C160.691 26.2606 160.369 26.3234 160.037 26.3772C159.705 26.431 159.387 26.4803 159.082 26.5252C158.463 26.6238 157.934 26.7763 157.494 26.9826C157.064 27.1888 156.732 27.4579 156.499 27.7897C156.275 28.1125 156.163 28.4982 156.163 28.9466C156.163 29.6281 156.405 30.1483 156.889 30.507C157.382 30.8657 158.006 31.0451 158.759 31.0451ZM173.099 35V14.3376H179.489V18.1042H179.704C180.08 16.741 180.695 15.7276 181.547 15.064C182.399 14.3914 183.39 14.0551 184.52 14.0551C184.825 14.0551 185.138 14.0775 185.461 14.1223C185.784 14.1582 186.085 14.2165 186.363 14.2972V20.0144C186.049 19.9067 185.636 19.8216 185.125 19.7588C184.623 19.696 184.174 19.6646 183.78 19.6646C183 19.6646 182.296 19.8395 181.668 20.1892C181.049 20.53 180.56 21.0098 180.201 21.6286C179.852 22.2384 179.677 22.9559 179.677 23.781V35H173.099ZM197.629 35.3901C195.467 35.3901 193.602 34.9641 192.033 34.1122C190.472 33.2512 189.27 32.0271 188.427 30.4397C187.593 28.8434 187.176 26.9467 187.176 24.7495C187.176 22.6151 187.598 20.7497 188.441 19.1534C189.284 17.5481 190.472 16.3016 192.006 15.4137C193.539 14.5169 195.346 14.0685 197.427 14.0685C198.898 14.0685 200.243 14.2972 201.463 14.7546C202.682 15.212 203.736 15.8891 204.624 16.7859C205.512 17.6827 206.202 18.7902 206.695 20.1085C207.189 21.4179 207.435 22.92 207.435 24.615V26.2561H189.477V22.4357H201.315C201.306 21.7362 201.14 21.113 200.817 20.5659C200.494 20.0188 200.05 19.5929 199.485 19.288C198.929 18.9741 198.288 18.8171 197.561 18.8171C196.826 18.8171 196.167 18.983 195.584 19.3149C195.001 19.6377 194.539 20.0816 194.198 20.6466C193.858 21.2026 193.678 21.8349 193.66 22.5434V26.431C193.66 27.274 193.826 28.0139 194.158 28.6506C194.49 29.2784 194.961 29.7671 195.571 30.1169C196.18 30.4666 196.907 30.6415 197.75 30.6415C198.333 30.6415 198.862 30.5608 199.337 30.3994C199.812 30.238 200.22 30.0003 200.561 29.6864C200.902 29.3725 201.158 28.9869 201.328 28.5295L207.368 28.7044C207.117 30.0586 206.565 31.2379 205.713 32.2423C204.87 33.2378 203.763 34.0135 202.391 34.5695C201.019 35.1166 199.431 35.3901 197.629 35.3901Z"/>
</mask>
<path d="M147.093 17.4316H140.366C140.277 16.741 140.093 16.1177 139.815 15.5617C139.537 15.0057 139.169 14.5304 138.712 14.1358C138.254 13.7412 137.712 13.4408 137.084 13.2345C136.465 13.0193 135.779 12.9117 135.026 12.9117C133.69 12.9117 132.537 13.239 131.569 13.8937C130.609 14.5483 129.869 15.4945 129.349 16.7321C128.838 17.9696 128.582 19.4673 128.582 21.2251C128.582 23.0545 128.843 24.5881 129.363 25.8257C129.892 27.0543 130.632 27.9825 131.582 28.6103C132.542 29.2291 133.676 29.5384 134.986 29.5384C135.721 29.5384 136.389 29.4443 136.99 29.256C137.6 29.0676 138.133 28.7941 138.591 28.4354C139.057 28.0677 139.438 27.6238 139.734 27.1036C140.039 26.5745 140.25 25.9781 140.366 25.3145L147.093 25.3548C146.976 26.5745 146.622 27.7762 146.03 28.96C145.447 30.1438 144.644 31.2244 143.622 32.202C142.6 33.1705 141.353 33.9418 139.882 34.5157C138.42 35.0897 136.743 35.3767 134.851 35.3767C132.358 35.3767 130.125 34.8296 128.152 33.7355C126.188 32.6324 124.636 31.0271 123.498 28.9197C122.359 26.8122 121.789 24.2473 121.789 21.2251C121.789 18.1938 122.368 15.6245 123.524 13.517C124.681 11.4095 126.246 9.80871 128.219 8.71461C130.192 7.6205 132.403 7.07345 134.851 7.07345C136.519 7.07345 138.062 7.30662 139.479 7.77296C140.896 8.23033 142.142 8.90293 143.218 9.79077C144.294 10.6696 145.169 11.7503 145.841 13.0327C146.514 14.3152 146.931 15.7814 147.093 17.4316ZM156.728 35.3498C155.409 35.3498 154.239 35.13 153.217 34.6906C152.203 34.2422 151.401 33.5696 150.809 32.6728C150.226 31.767 149.934 30.6326 149.934 29.2694C149.934 28.1215 150.136 27.1529 150.54 26.3638C150.943 25.5746 151.499 24.9333 152.208 24.4401C152.916 23.9469 153.732 23.5747 154.656 23.3236C155.58 23.0635 156.566 22.8886 157.615 22.7989C158.79 22.6913 159.736 22.5792 160.454 22.4626C161.171 22.3371 161.691 22.1622 162.014 21.938C162.346 21.7048 162.512 21.3775 162.512 20.956V20.8888C162.512 20.1982 162.274 19.6646 161.799 19.288C161.324 18.9113 160.682 18.723 159.875 18.723C159.005 18.723 158.306 18.9113 157.777 19.288C157.248 19.6646 156.911 20.1848 156.768 20.8484L150.701 20.6332C150.88 19.3776 151.342 18.2566 152.087 17.2701C152.84 16.2747 153.871 15.4945 155.181 14.9295C156.499 14.3555 158.082 14.0685 159.929 14.0685C161.247 14.0685 162.463 14.2255 163.575 14.5394C164.687 14.8443 165.655 15.2927 166.48 15.8846C167.305 16.4675 167.942 17.1849 168.391 18.0369C168.848 18.8889 169.077 19.8619 169.077 20.956V35H162.889V32.1213H162.727C162.36 32.8208 161.889 33.4127 161.315 33.8969C160.75 34.3812 160.082 34.7444 159.31 34.9865C158.548 35.2287 157.687 35.3498 156.728 35.3498ZM158.759 31.0451C159.467 31.0451 160.104 30.9016 160.669 30.6146C161.243 30.3276 161.7 29.933 162.041 29.4308C162.382 28.9197 162.552 28.3278 162.552 27.6552V25.6912C162.364 25.7898 162.135 25.8795 161.866 25.9602C161.606 26.0409 161.319 26.1171 161.005 26.1889C160.691 26.2606 160.369 26.3234 160.037 26.3772C159.705 26.431 159.387 26.4803 159.082 26.5252C158.463 26.6238 157.934 26.7763 157.494 26.9826C157.064 27.1888 156.732 27.4579 156.499 27.7897C156.275 28.1125 156.163 28.4982 156.163 28.9466C156.163 29.6281 156.405 30.1483 156.889 30.507C157.382 30.8657 158.006 31.0451 158.759 31.0451ZM173.099 35V14.3376H179.489V18.1042H179.704C180.08 16.741 180.695 15.7276 181.547 15.064C182.399 14.3914 183.39 14.0551 184.52 14.0551C184.825 14.0551 185.138 14.0775 185.461 14.1223C185.784 14.1582 186.085 14.2165 186.363 14.2972V20.0144C186.049 19.9067 185.636 19.8216 185.125 19.7588C184.623 19.696 184.174 19.6646 183.78 19.6646C183 19.6646 182.296 19.8395 181.668 20.1892C181.049 20.53 180.56 21.0098 180.201 21.6286C179.852 22.2384 179.677 22.9559 179.677 23.781V35H173.099ZM197.629 35.3901C195.467 35.3901 193.602 34.9641 192.033 34.1122C190.472 33.2512 189.27 32.0271 188.427 30.4397C187.593 28.8434 187.176 26.9467 187.176 24.7495C187.176 22.6151 187.598 20.7497 188.441 19.1534C189.284 17.5481 190.472 16.3016 192.006 15.4137C193.539 14.5169 195.346 14.0685 197.427 14.0685C198.898 14.0685 200.243 14.2972 201.463 14.7546C202.682 15.212 203.736 15.8891 204.624 16.7859C205.512 17.6827 206.202 18.7902 206.695 20.1085C207.189 21.4179 207.435 22.92 207.435 24.615V26.2561H189.477V22.4357H201.315C201.306 21.7362 201.14 21.113 200.817 20.5659C200.494 20.0188 200.05 19.5929 199.485 19.288C198.929 18.9741 198.288 18.8171 197.561 18.8171C196.826 18.8171 196.167 18.983 195.584 19.3149C195.001 19.6377 194.539 20.0816 194.198 20.6466C193.858 21.2026 193.678 21.8349 193.66 22.5434V26.431C193.66 27.274 193.826 28.0139 194.158 28.6506C194.49 29.2784 194.961 29.7671 195.571 30.1169C196.18 30.4666 196.907 30.6415 197.75 30.6415C198.333 30.6415 198.862 30.5608 199.337 30.3994C199.812 30.238 200.22 30.0003 200.561 29.6864C200.902 29.3725 201.158 28.9869 201.328 28.5295L207.368 28.7044C207.117 30.0586 206.565 31.2379 205.713 32.2423C204.87 33.2378 203.763 34.0135 202.391 34.5695C201.019 35.1166 199.431 35.3901 197.629 35.3901Z" fill="white"/>
<path d="M147.093 17.4316V19.6669H149.557L149.317 17.2139L147.093 17.4316ZM140.366 17.4316L138.15 17.7194L138.403 19.6669H140.366V17.4316ZM139.815 15.5617L137.816 16.5614L137.816 16.5614L139.815 15.5617ZM138.712 14.1358L140.172 12.4433L140.172 12.4433L138.712 14.1358ZM137.084 13.2345L136.35 15.3457L136.368 15.3521L136.386 15.3581L137.084 13.2345ZM131.569 13.8937L130.317 12.0417L130.309 12.0472L131.569 13.8937ZM129.349 16.7321L127.288 15.866L127.283 15.8787L129.349 16.7321ZM129.363 25.8257L127.302 26.6918L127.306 26.7008L127.31 26.7098L129.363 25.8257ZM131.582 28.6103L130.35 30.4755L130.361 30.4822L130.371 30.4888L131.582 28.6103ZM136.99 29.256L136.33 27.1202L136.321 27.123L136.99 29.256ZM138.591 28.4354L139.97 30.1942L139.975 30.1907L138.591 28.4354ZM139.734 27.1036L137.797 25.9875L137.791 25.9982L139.734 27.1036ZM140.366 25.3145L140.38 23.0792L138.492 23.0679L138.165 24.9277L140.366 25.3145ZM147.093 25.3548L149.318 25.5675L149.55 23.1343L147.106 23.1196L147.093 25.3548ZM146.03 28.96L144.03 27.9603L144.024 27.9725L146.03 28.96ZM143.622 32.202L145.159 33.8247L145.167 33.8176L143.622 32.202ZM139.882 34.5157L139.07 32.4334L139.065 32.4351L139.882 34.5157ZM128.152 33.7355L127.057 35.6845L127.068 35.6903L128.152 33.7355ZM123.498 28.9197L125.464 27.8569L123.498 28.9197ZM123.524 13.517L121.565 12.4414L121.565 12.4414L123.524 13.517ZM139.479 7.77296L138.78 9.89625L138.792 9.90018L139.479 7.77296ZM143.218 9.79077L141.796 11.515L141.804 11.5221L143.218 9.79077ZM147.093 15.1963H140.366V19.6669H147.093V15.1963ZM142.583 17.1437C142.465 16.2349 142.217 15.3667 141.814 14.5621L137.816 16.5614C137.969 16.8688 138.088 17.2472 138.15 17.7194L142.583 17.1437ZM141.814 14.5621C141.408 13.7496 140.86 13.0366 140.172 12.4433L137.252 15.8283C137.479 16.0242 137.666 16.2618 137.816 16.5614L141.814 14.5621ZM140.172 12.4433C139.471 11.8388 138.663 11.4005 137.782 11.1109L136.386 15.3581C136.761 15.481 137.038 15.6436 137.252 15.8283L140.172 12.4433ZM137.819 11.1233C136.931 10.8146 135.992 10.6764 135.026 10.6764V15.147C135.566 15.147 136 15.2239 136.35 15.3457L137.819 11.1233ZM135.026 10.6764C133.309 10.6764 131.706 11.1027 130.317 12.0417L132.821 15.7456C133.368 15.3752 134.07 15.147 135.026 15.147V10.6764ZM130.309 12.0472C128.941 12.9806 127.949 14.2945 127.289 15.866L131.41 17.5981C131.79 16.6944 132.278 16.116 132.829 15.7402L130.309 12.0472ZM127.283 15.8787C126.631 17.4571 126.347 19.2615 126.347 21.2251H130.818C130.818 19.6731 131.045 18.4822 131.415 17.5854L127.283 15.8787ZM126.347 21.2251C126.347 23.2507 126.633 25.0999 127.302 26.6918L131.423 24.9596C131.052 24.0763 130.818 22.8584 130.818 21.2251H126.347ZM127.31 26.7098C127.98 28.2674 128.977 29.5683 130.35 30.4755L132.814 26.745C132.287 26.3966 131.803 25.8412 131.416 24.9415L127.31 26.7098ZM130.371 30.4888C131.742 31.3732 133.311 31.7737 134.986 31.7737V27.3032C134.041 27.3032 133.341 27.0849 132.794 26.7317L130.371 30.4888ZM134.986 31.7737C135.911 31.7737 136.809 31.6553 137.659 31.3889L136.321 27.123C135.97 27.2332 135.531 27.3032 134.986 27.3032V31.7737ZM137.65 31.3917C138.495 31.1307 139.278 30.7373 139.97 30.1942L137.211 26.6765C136.989 26.8509 136.705 27.0046 136.33 27.1202L137.65 31.3917ZM139.975 30.1907C140.669 29.643 141.24 28.9778 141.677 28.209L137.791 25.9982C137.637 26.2697 137.445 26.4923 137.207 26.6801L139.975 30.1907ZM141.671 28.2197C142.119 27.4426 142.411 26.5951 142.568 25.7013L138.165 24.9277C138.089 25.3611 137.96 25.7064 137.797 25.9875L141.671 28.2197ZM140.353 27.5497L147.079 27.5901L147.106 23.1196L140.38 23.0792L140.353 27.5497ZM144.867 25.1422C144.779 26.0666 144.509 27.0029 144.03 27.9604L148.029 29.9597C148.734 28.5496 149.173 27.0824 149.318 25.5675L144.867 25.1422ZM144.024 27.9725C143.565 28.9052 142.924 29.7766 142.077 30.5863L145.167 33.8176C146.364 32.6723 147.329 31.3824 148.035 29.9475L144.024 27.9725ZM142.085 30.5792C141.296 31.3266 140.304 31.9517 139.07 32.4334L140.695 36.5981C142.402 35.9318 143.903 35.0145 145.159 33.8247L142.085 30.5792ZM139.065 32.4351C137.911 32.8882 136.52 33.1414 134.851 33.1414V37.612C136.967 37.612 138.93 37.2911 140.699 36.5964L139.065 32.4351ZM134.851 33.1414C132.697 33.1414 130.843 32.672 129.236 31.7807L127.068 35.6903C129.407 36.9872 132.019 37.612 134.851 37.612V33.1414ZM129.247 31.7866C127.675 30.9038 126.415 29.6172 125.464 27.8569L121.531 29.9824C122.858 32.4371 124.701 34.361 127.057 35.6844L129.247 31.7866ZM125.464 27.8569C124.542 26.1504 124.024 23.9713 124.024 21.2251H119.554C119.554 24.5233 120.175 27.4739 121.531 29.9824L125.464 27.8569ZM124.024 21.2251C124.024 18.4737 124.549 16.2953 125.484 14.5926L121.565 12.4414C120.186 14.9537 119.554 17.914 119.554 21.2251H124.024ZM125.484 14.5926C126.452 12.8296 127.724 11.5454 129.303 10.6694L127.135 6.75977C124.769 8.07205 122.911 9.98944 121.565 12.4414L125.484 14.5926ZM129.303 10.6694C130.917 9.77474 132.749 9.30874 134.851 9.30874V4.83816C132.057 4.83816 129.468 5.46626 127.135 6.75977L129.303 10.6694ZM134.851 9.30874C136.31 9.30874 137.613 9.5123 138.78 9.89622L140.177 5.6497C138.51 5.10094 136.729 4.83816 134.851 4.83816V9.30874ZM138.792 9.90018C139.959 10.2768 140.952 10.8186 141.796 11.515L144.641 8.06653C143.333 6.98732 141.833 6.1839 140.165 5.64574L138.792 9.90018ZM141.804 11.5221C142.637 12.2024 143.323 13.0438 143.862 14.071L147.821 11.9945C147.015 10.4568 145.952 9.13693 144.632 8.05947L141.804 11.5221ZM143.862 14.071C144.383 15.0639 144.73 16.2446 144.868 17.6492L149.317 17.2139C149.132 15.3182 148.645 13.5664 147.821 11.9945L143.862 14.071ZM153.217 34.6906L152.312 36.7347L152.323 36.7395L152.334 36.7442L153.217 34.6906ZM150.809 32.6728L148.929 33.8825L148.936 33.8933L148.943 33.9041L150.809 32.6728ZM150.54 26.3638L148.549 25.346L148.549 25.346L150.54 26.3638ZM152.208 24.4401L153.485 26.2746L153.485 26.2746L152.208 24.4401ZM154.656 23.3236L155.242 25.4806L155.252 25.478L155.262 25.4752L154.656 23.3236ZM157.615 22.7989L157.806 25.0262L157.819 25.0249L157.615 22.7989ZM160.454 22.4626L160.812 24.669L160.826 24.6668L160.839 24.6645L160.454 22.4626ZM162.014 21.938L163.289 23.774L163.299 23.7669L162.014 21.938ZM161.799 19.288L163.187 17.536L163.187 17.536L161.799 19.288ZM157.777 19.288L156.481 17.4669L156.481 17.4669L157.777 19.288ZM156.768 20.8484L156.689 23.0823L158.558 23.1486L158.953 21.3208L156.768 20.8484ZM150.701 20.6332L148.488 20.317L148.137 22.7789L150.622 22.8671L150.701 20.6332ZM152.087 17.2701L150.304 15.9213L150.302 15.9238L152.087 17.2701ZM155.181 14.9295L156.066 16.9819L156.073 16.979L155.181 14.9295ZM163.575 14.5394L162.967 16.6906L162.976 16.6929L162.984 16.6951L163.575 14.5394ZM166.48 15.8846L165.177 17.7008L165.184 17.7055L165.191 17.7102L166.48 15.8846ZM168.391 18.0369L166.412 19.078L166.417 19.0861L166.421 19.0942L168.391 18.0369ZM169.077 35V37.2353H171.312V35H169.077ZM162.889 35H160.653V37.2353H162.889V35ZM162.889 32.1213H165.124V29.886H162.889V32.1213ZM162.727 32.1213V29.886H161.377L160.749 31.0812L162.727 32.1213ZM161.315 33.8969L159.873 32.1885L159.867 32.1941L159.86 32.1998L161.315 33.8969ZM159.31 34.9865L158.641 32.8539L158.634 32.8561L159.31 34.9865ZM160.669 30.6146L159.669 28.6153L159.663 28.6185L159.657 28.6217L160.669 30.6146ZM162.041 29.4308L163.891 30.686L163.896 30.6784L163.901 30.6708L162.041 29.4308ZM162.552 25.6912H164.788V21.9969L161.515 23.7111L162.552 25.6912ZM161.866 25.9602L161.224 23.8192L161.214 23.8222L161.204 23.8253L161.866 25.9602ZM160.037 26.3772L160.395 28.5837L160.395 28.5837L160.037 26.3772ZM159.082 26.5252L158.756 24.3137L158.743 24.3156L158.73 24.3178L159.082 26.5252ZM157.494 26.9826L156.545 24.9591L156.536 24.9629L156.528 24.9667L157.494 26.9826ZM156.499 27.7897L154.67 26.5045L154.663 26.5147L156.499 27.7897ZM156.889 30.507L155.559 32.3032L155.566 32.309L155.574 32.3148L156.889 30.507ZM156.728 33.1145C155.658 33.1145 154.796 32.9365 154.099 32.637L152.334 36.7442C153.682 37.3235 155.161 37.585 156.728 37.585V33.1145ZM154.121 32.6465C153.486 32.3656 153.023 31.9692 152.674 31.4415L148.943 33.9041C149.779 35.1699 150.92 36.1188 152.312 36.7347L154.121 32.6465ZM152.688 31.4631C152.392 31.0028 152.17 30.3168 152.17 29.2694H147.699C147.699 30.9483 148.059 32.5313 148.929 33.8825L152.688 31.4631ZM152.17 29.2694C152.17 28.3744 152.328 27.7766 152.53 27.3815L148.549 25.346C147.944 26.5293 147.699 27.8686 147.699 29.2694H152.17ZM152.53 27.3815C152.771 26.9098 153.086 26.5525 153.485 26.2746L150.931 22.6056C149.913 23.3142 149.115 24.2393 148.549 25.346L152.53 27.3815ZM153.485 26.2746C153.962 25.9427 154.539 25.6718 155.242 25.4806L154.07 21.1666C152.926 21.4776 151.871 21.9511 150.931 22.6056L153.485 26.2746ZM155.262 25.4752C156.037 25.2569 156.884 25.1049 157.806 25.0261L157.425 20.5718C156.249 20.6723 155.122 20.8701 154.05 21.1719L155.262 25.4752ZM157.819 25.0249C159.018 24.9151 160.022 24.7974 160.812 24.669L160.095 20.2563C159.451 20.361 158.562 20.4676 157.412 20.573L157.819 25.0249ZM160.839 24.6645C161.649 24.5227 162.56 24.2806 163.289 23.774L160.739 20.102C160.804 20.0567 160.802 20.0739 160.67 20.1186C160.544 20.1607 160.35 20.2116 160.068 20.2608L160.839 24.6645ZM163.299 23.7669C164.254 23.096 164.747 22.0715 164.747 20.956H160.277C160.277 20.868 160.296 20.7002 160.394 20.5071C160.493 20.3107 160.627 20.1806 160.729 20.1091L163.299 23.7669ZM164.747 20.956V20.8888H160.277V20.956H164.747ZM164.747 20.8888C164.747 19.6226 164.276 18.399 163.187 17.536L160.411 21.0399C160.398 21.0299 160.376 21.0098 160.351 20.9782C160.326 20.9463 160.306 20.9122 160.292 20.8801C160.262 20.8133 160.277 20.8005 160.277 20.8888H164.747ZM163.187 17.536C162.204 16.7564 161.02 16.4877 159.875 16.4877V20.9583C160.345 20.9583 160.444 21.0661 160.411 21.0399L163.187 17.536ZM159.875 16.4877C158.696 16.4877 157.498 16.7429 156.481 17.4669L159.073 21.109C159.114 21.0797 159.315 20.9583 159.875 20.9583V16.4877ZM156.481 17.4669C155.475 18.1825 154.838 19.195 154.583 20.376L158.953 21.3208C158.973 21.2272 158.997 21.187 159.005 21.1742C159.012 21.1629 159.028 21.1415 159.073 21.109L156.481 17.4669ZM156.847 18.6145L150.78 18.3993L150.622 22.8671L156.689 23.0823L156.847 18.6145ZM152.914 20.9493C153.041 20.0576 153.36 19.2932 153.871 18.6165L150.302 15.9238C149.324 17.2201 148.72 18.6976 148.488 20.317L152.914 20.9493ZM153.869 18.619C154.358 17.9732 155.06 17.4159 156.066 16.9818L154.295 12.8771C152.682 13.5731 151.322 14.5761 150.304 15.9213L153.869 18.619ZM156.073 16.979C157.042 16.5571 158.305 16.3038 159.929 16.3038V11.8332C157.859 11.8332 155.956 12.1539 154.288 12.88L156.073 16.979ZM159.929 16.3038C161.07 16.3038 162.079 16.4397 162.967 16.6906L164.182 12.3881C162.847 12.0113 161.424 11.8332 159.929 11.8332V16.3038ZM162.984 16.6951C163.874 16.9393 164.595 17.2828 165.177 17.7008L167.783 14.0683C166.716 13.3025 165.499 12.7492 164.166 12.3836L162.984 16.6951ZM165.191 17.7102C165.742 18.0999 166.137 18.5536 166.412 19.078L170.369 16.9958C169.748 15.8162 168.869 14.8351 167.77 14.059L165.191 17.7102ZM166.421 19.0942C166.682 19.5804 166.841 20.1817 166.841 20.956H171.312C171.312 19.5421 171.014 18.1974 170.36 16.9796L166.421 19.0942ZM166.841 20.956V35H171.312V20.956H166.841ZM169.077 32.7647H162.889V37.2353H169.077V32.7647ZM165.124 35V32.1213H160.653V35H165.124ZM162.889 29.886H162.727V34.3565H162.889V29.886ZM160.749 31.0812C160.508 31.5389 160.215 31.8999 159.873 32.1885L162.756 35.6053C163.562 34.9254 164.211 34.1026 164.706 33.1613L160.749 31.0812ZM159.86 32.1998C159.544 32.4708 159.149 32.6944 158.641 32.8539L159.98 37.1192C161.015 36.7944 161.956 36.2916 162.769 35.5941L159.86 32.1998ZM158.634 32.8561C158.129 33.0165 157.502 33.1145 156.728 33.1145V37.585C157.872 37.585 158.967 37.4409 159.987 37.1169L158.634 32.8561ZM158.759 33.2804C159.777 33.2804 160.767 33.0718 161.681 32.6076L159.657 28.6217C159.441 28.7313 159.158 28.8098 158.759 28.8098V33.2804ZM161.669 32.6139C162.565 32.1659 163.323 31.5232 163.891 30.686L160.192 28.1757C160.078 28.3429 159.921 28.4894 159.669 28.6153L161.669 32.6139ZM163.901 30.6708C164.51 29.7577 164.788 28.7254 164.788 27.6552H160.317C160.317 27.9301 160.254 28.0816 160.181 28.1909L163.901 30.6708ZM164.788 27.6552V25.6912H160.317V27.6552H164.788ZM161.515 23.7111C161.486 23.7265 161.397 23.7672 161.224 23.8192L162.509 28.1012C162.873 27.9918 163.242 27.8531 163.59 27.6712L161.515 23.7111ZM161.204 23.8253C161.007 23.8865 160.775 23.9485 160.507 24.0098L161.503 28.368C161.863 28.2858 162.206 28.1953 162.529 28.095L161.204 23.8253ZM160.507 24.0098C160.242 24.0705 159.966 24.1242 159.679 24.1707L160.395 28.5837C160.771 28.5226 161.141 28.4508 161.503 28.368L160.507 24.0098ZM159.679 24.1707C159.357 24.2229 159.05 24.2706 158.756 24.3137L159.407 28.7367C159.724 28.6901 160.053 28.6391 160.395 28.5837L159.679 24.1707ZM158.73 24.3178C157.961 24.4404 157.219 24.6423 156.545 24.9591L158.444 29.006C158.648 28.9103 158.965 28.8073 159.434 28.7326L158.73 24.3178ZM156.528 24.9667C155.814 25.3091 155.16 25.8078 154.67 26.5045L158.328 29.0748C158.319 29.0869 158.316 29.0866 158.33 29.0753C158.346 29.0629 158.385 29.0346 158.46 28.9984L156.528 24.9667ZM154.663 26.5147C154.143 27.263 153.927 28.1088 153.927 28.9466H158.398C158.398 28.9092 158.402 28.913 158.393 28.945C158.383 28.9795 158.364 29.023 158.335 29.0647L154.663 26.5147ZM153.927 28.9466C153.927 30.23 154.425 31.4633 155.559 32.3032L158.22 28.7108C158.236 28.7227 158.263 28.7463 158.294 28.7836C158.325 28.8214 158.351 28.8631 158.371 28.9045C158.411 28.9902 158.398 29.0219 158.398 28.9466H153.927ZM155.574 32.3148C156.532 33.0111 157.646 33.2804 158.759 33.2804V28.8098C158.365 28.8098 158.233 28.7204 158.204 28.6992L155.574 32.3148ZM173.099 35H170.863V37.2353H173.099V35ZM173.099 14.3376V12.1023H170.863V14.3376H173.099ZM179.489 14.3376H181.724V12.1023H179.489V14.3376ZM179.489 18.1042H177.253V20.3395H179.489V18.1042ZM179.704 18.1042V20.3395H181.405L181.858 18.6995L179.704 18.1042ZM181.547 15.064L182.92 16.8274L182.926 16.823L182.932 16.8184L181.547 15.064ZM185.461 14.1223L185.154 16.3364L185.184 16.3406L185.214 16.344L185.461 14.1223ZM186.363 14.2972H188.598V12.6186L186.986 12.1506L186.363 14.2972ZM186.363 20.0144L185.638 22.1288L188.598 23.1438V20.0144H186.363ZM185.125 19.7588L184.848 21.9768L184.852 21.9774L185.125 19.7588ZM181.668 20.1892L182.746 22.1473L182.756 22.1419L181.668 20.1892ZM180.201 21.6286L178.268 20.5075L178.262 20.5165L180.201 21.6286ZM179.677 35V37.2353H181.912V35H179.677ZM175.334 35V14.3376H170.863V35H175.334ZM173.099 16.5729H179.489V12.1023H173.099V16.5729ZM177.253 14.3376V18.1042H181.724V14.3376H177.253ZM179.489 20.3395H179.704V15.8689H179.489V20.3395ZM181.858 18.6995C182.147 17.6564 182.55 17.116 182.92 16.8274L180.173 13.3006C178.84 14.3393 178.014 15.8256 177.549 17.5088L181.858 18.6995ZM182.932 16.8184C183.372 16.4708 183.87 16.2904 184.52 16.2904V11.8198C182.909 11.8198 181.425 12.312 180.162 13.3095L182.932 16.8184ZM184.52 16.2904C184.715 16.2904 184.926 16.3047 185.154 16.3364L185.769 11.9083C185.351 11.8503 184.934 11.8198 184.52 11.8198V16.2904ZM185.214 16.344C185.425 16.3674 185.598 16.4029 185.739 16.4439L186.986 12.1506C186.571 12.0301 186.143 11.9491 185.708 11.9007L185.214 16.344ZM184.127 14.2972V20.0144H188.598V14.2972H184.127ZM187.088 17.8999C186.57 17.7224 185.988 17.6127 185.397 17.5401L184.852 21.9774C185.284 22.0304 185.528 22.0911 185.638 22.1288L187.088 17.8999ZM185.402 17.5407C184.832 17.4695 184.289 17.4293 183.78 17.4293V21.8999C184.06 21.8999 184.413 21.9225 184.848 21.9768L185.402 17.5407ZM183.78 17.4293C182.652 17.4293 181.568 17.6858 180.58 18.2366L182.756 22.1419C183.023 21.9932 183.347 21.8999 183.78 21.8999V17.4293ZM180.589 18.2312C179.61 18.7706 178.827 19.5418 178.268 20.5075L182.135 22.7497C182.293 22.4778 182.488 22.2894 182.746 22.1472L180.589 18.2312ZM178.262 20.5165C177.687 21.5195 177.442 22.6339 177.442 23.781H181.912C181.912 23.2779 182.016 22.9574 182.141 22.7407L178.262 20.5165ZM177.442 23.781V35H181.912V23.781H177.442ZM179.677 32.7647H173.099V37.2353H179.677V32.7647ZM192.033 34.1122L190.953 36.0693L190.959 36.073L190.966 36.0767L192.033 34.1122ZM188.427 30.4397L186.446 31.4749L186.45 31.4815L186.453 31.4882L188.427 30.4397ZM188.441 19.1534L190.418 20.1973L190.42 20.1927L188.441 19.1534ZM192.006 15.4137L193.126 17.3482L193.134 17.3433L192.006 15.4137ZM201.463 14.7546L202.247 12.6616L202.247 12.6616L201.463 14.7546ZM206.695 20.1085L204.602 20.8918L204.604 20.8965L206.695 20.1085ZM207.435 26.2561V28.4914H209.671V26.2561H207.435ZM189.477 26.2561H187.241V28.4914H189.477V26.2561ZM189.477 22.4357V20.2004H187.241V22.4357H189.477ZM201.315 22.4357V24.671H203.579L203.55 22.4071L201.315 22.4357ZM199.485 19.288L198.386 21.2345L198.405 21.245L198.423 21.2551L199.485 19.288ZM195.584 19.3149L196.667 21.2703L196.678 21.2639L196.69 21.2575L195.584 19.3149ZM194.198 20.6466L196.104 21.8147L196.108 21.8079L196.112 21.8011L194.198 20.6466ZM193.66 22.5434L191.426 22.4868L191.425 22.5151V22.5434H193.66ZM194.158 28.6506L192.176 29.6836L192.182 29.6952L194.158 28.6506ZM195.571 30.1169L194.458 32.0559L194.458 32.0559L195.571 30.1169ZM199.337 30.3994L200.056 32.5159L200.056 32.5159L199.337 30.3994ZM200.561 29.6864L202.076 31.3306L202.076 31.3306L200.561 29.6864ZM201.328 28.5295L201.393 26.2952L199.792 26.2488L199.233 27.7492L201.328 28.5295ZM207.368 28.7044L209.566 29.112L210.042 26.5456L207.433 26.4701L207.368 28.7044ZM205.713 32.2423L204.009 30.7964L204.008 30.7978L205.713 32.2423ZM202.391 34.5695L203.219 36.6459L203.23 36.6412L202.391 34.5695ZM197.629 33.1548C195.762 33.1548 194.279 32.7882 193.099 32.1477L190.966 36.0767C192.925 37.1401 195.173 37.6254 197.629 37.6254V33.1548ZM193.112 32.155C191.935 31.5056 191.043 30.5988 190.402 29.3913L186.453 31.4882C187.498 33.4554 189.009 34.9969 190.953 36.0693L193.112 32.155ZM190.409 29.4046C189.774 28.1907 189.412 26.6645 189.412 24.7495H184.941C184.941 27.2288 185.412 29.4962 186.446 31.4749L190.409 29.4046ZM189.412 24.7495C189.412 22.9127 189.773 21.418 190.418 20.1973L186.464 18.1096C185.423 20.0815 184.941 22.3175 184.941 24.7495H189.412ZM190.42 20.1927C191.072 18.9517 191.966 18.0196 193.126 17.3482L190.886 13.4793C188.978 14.5836 187.496 16.1446 186.462 18.1142L190.42 20.1927ZM193.134 17.3433C194.271 16.6787 195.674 16.3038 197.427 16.3038V11.8332C195.018 11.8332 192.808 12.3552 190.877 13.4842L193.134 17.3433ZM197.427 16.3038C198.664 16.3038 199.739 16.4957 200.678 16.8476L202.247 12.6616C200.747 12.0988 199.131 11.8332 197.427 11.8332V16.3038ZM200.678 16.8476C201.605 17.1953 202.382 17.6986 203.035 18.3585L206.212 15.2132C205.09 14.0795 203.759 13.2286 202.247 12.6616L200.678 16.8476ZM203.035 18.3585C203.676 19.0062 204.206 19.8351 204.602 20.8918L208.789 19.3252C208.198 17.7454 207.347 16.3591 206.212 15.2132L203.035 18.3585ZM204.604 20.8965C204.984 21.907 205.2 23.1339 205.2 24.615H209.671C209.671 22.7061 209.393 20.9287 208.787 19.3205L204.604 20.8965ZM205.2 24.615V26.2561H209.671V24.615H205.2ZM207.435 24.0208H189.477V28.4914H207.435V24.0208ZM191.712 26.2561V22.4357H187.241V26.2561H191.712ZM189.477 24.671H201.315V20.2004H189.477V24.671ZM203.55 22.4071C203.536 21.3582 203.283 20.3459 202.742 19.4298L198.892 21.702C198.997 21.88 199.075 22.1142 199.079 22.4644L203.55 22.4071ZM202.742 19.4298C202.21 18.5284 201.466 17.8168 200.547 17.3208L198.423 21.2551C198.634 21.3689 198.778 21.5093 198.892 21.702L202.742 19.4298ZM200.584 17.3414C199.649 16.8134 198.619 16.5818 197.561 16.5818V21.0524C197.957 21.0524 198.209 21.1347 198.386 21.2345L200.584 17.3414ZM197.561 16.5818C196.477 16.5818 195.43 16.8305 194.478 17.3722L196.69 21.2575C196.904 21.1356 197.175 21.0524 197.561 21.0524V16.5818ZM194.501 17.3594C193.579 17.8699 192.829 18.5885 192.284 19.4921L196.112 21.8011C196.249 21.5747 196.423 21.4055 196.667 21.2703L194.501 17.3594ZM192.293 19.4785C191.729 20.3984 191.453 21.4205 191.426 22.4868L195.895 22.5999C195.904 22.2493 195.986 22.0068 196.104 21.8147L192.293 19.4785ZM191.425 22.5434V26.431H195.896V22.5434H191.425ZM191.425 26.431C191.425 27.5711 191.651 28.6767 192.176 29.6836L196.14 27.6176C196.001 27.3511 195.896 26.9769 195.896 26.431H191.425ZM192.182 29.6952C192.709 30.6929 193.478 31.4935 194.458 32.0559L196.683 28.1779C196.444 28.0407 196.271 27.8639 196.134 27.606L192.182 29.6952ZM194.458 32.0559C195.468 32.6351 196.594 32.8768 197.75 32.8768V28.4062C197.219 28.4062 196.892 28.2982 196.683 28.1779L194.458 32.0559ZM197.75 32.8768C198.539 32.8768 199.315 32.7675 200.056 32.5159L198.618 28.2828C198.408 28.3541 198.127 28.4062 197.75 28.4062V32.8768ZM200.056 32.5159C200.802 32.2627 201.487 31.8728 202.076 31.3306L199.047 28.0423C198.954 28.1278 198.823 28.2132 198.618 28.2828L200.056 32.5159ZM202.076 31.3306C202.689 30.7657 203.136 30.0787 203.423 29.3099L199.233 27.7492C199.179 27.8951 199.115 27.9794 199.047 28.0423L202.076 31.3306ZM201.263 30.7639L207.303 30.9388L207.433 26.4701L201.393 26.2952L201.263 30.7639ZM205.17 28.2969C204.987 29.2861 204.597 30.103 204.009 30.7964L207.418 33.6882C208.534 32.3728 209.247 30.8311 209.566 29.112L205.17 28.2969ZM204.008 30.7978C203.428 31.4818 202.634 32.0592 201.551 32.4979L203.23 36.6412C204.892 35.9678 206.313 34.9937 207.419 33.6869L204.008 30.7978ZM201.563 32.4932C200.505 32.9149 199.208 33.1548 197.629 33.1548V37.6254C199.654 37.6254 201.532 37.3183 203.219 36.6459L201.563 32.4932Z" fill="#51CA83" mask="url(#path-7-outside-1_6_12)"/>
<mask id="path-9-outside-2_6_12" maskUnits="userSpaceOnUse" x="41" y="3" width="78" height="35" fill="black">
<rect fill="white" x="41" y="3" width="78" height="35"/>
<path d="M44.0851 35V7.45011H50.7439V18.5077H61.5997V7.45011H68.245V35H61.5997V23.9289H50.7439V35H44.0851ZM72.4219 35V14.3376H79V35H72.4219ZM75.7177 11.9297C74.794 11.9297 74.0003 11.6247 73.3367 11.0149C72.673 10.3961 72.3412 9.65177 72.3412 8.78187C72.3412 7.92093 72.673 7.18555 73.3367 6.57572C74.0003 5.95693 74.794 5.64753 75.7177 5.64753C76.6504 5.64753 77.444 5.95693 78.0987 6.57572C78.7623 7.18555 79.0942 7.92093 79.0942 8.78187C79.0942 9.65177 78.7623 10.3961 78.0987 11.0149C77.444 11.6247 76.6504 11.9297 75.7177 11.9297ZM94.8499 14.3376V19.1803H81.8148V14.3376H94.8499ZM84.5456 9.38721H91.1237V28.5026C91.1237 28.9062 91.1865 29.2335 91.312 29.4846C91.4465 29.7268 91.6394 29.9017 91.8905 30.0093C92.1416 30.1079 92.442 30.1572 92.7917 30.1572C93.0429 30.1572 93.3074 30.1348 93.5854 30.09C93.8724 30.0362 94.0876 29.9913 94.2311 29.9555L95.2266 34.7041C94.9127 34.7937 94.4688 34.9058 93.8948 35.0404C93.3298 35.1749 92.6527 35.2601 91.8636 35.2959C90.321 35.3677 88.9983 35.1883 87.8952 34.7579C86.8011 34.3184 85.9626 33.6369 85.3796 32.7131C84.8057 31.7894 84.5277 30.6281 84.5456 29.2291V9.38721ZM115.987 20.6466L109.947 20.808C109.884 20.3776 109.713 19.9964 109.435 19.6646C109.157 19.3238 108.794 19.0593 108.346 18.8709C107.906 18.6736 107.395 18.575 106.812 18.575C106.05 18.575 105.4 18.7274 104.862 19.0324C104.333 19.3373 104.072 19.7498 104.081 20.27C104.072 20.6735 104.234 21.0233 104.566 21.3192C104.906 21.6152 105.512 21.8528 106.382 22.0322L110.364 22.7855C112.426 23.1801 113.96 23.8348 114.964 24.7495C115.978 25.6642 116.489 26.8749 116.498 28.3816C116.489 29.7985 116.067 31.0316 115.233 32.0809C114.408 33.1302 113.278 33.9463 111.843 34.5292C110.408 35.1031 108.767 35.3901 106.92 35.3901C103.969 35.3901 101.642 34.7848 99.9382 33.5741C98.2432 32.3544 97.2747 30.7222 97.0325 28.6775L103.53 28.5161C103.673 29.2694 104.046 29.8434 104.646 30.238C105.247 30.6326 106.014 30.8299 106.947 30.8299C107.79 30.8299 108.476 30.6729 109.005 30.359C109.534 30.0451 109.803 29.6281 109.812 29.108C109.803 28.6416 109.597 28.2695 109.193 27.9915C108.79 27.7045 108.157 27.4803 107.296 27.3189L103.691 26.6328C101.62 26.2561 100.077 25.5611 99.0638 24.5477C98.0504 23.5254 97.5482 22.225 97.5572 20.6466C97.5482 19.2655 97.9159 18.0862 98.6602 17.1087C99.4046 16.1222 100.463 15.3689 101.835 14.8488C103.207 14.3286 104.826 14.0685 106.691 14.0685C109.489 14.0685 111.695 14.6559 113.31 15.8308C114.924 16.9966 115.816 18.6019 115.987 20.6466Z"/>
</mask>
<path d="M44.0851 35V7.45011H50.7439V18.5077H61.5997V7.45011H68.245V35H61.5997V23.9289H50.7439V35H44.0851ZM72.4219 35V14.3376H79V35H72.4219ZM75.7177 11.9297C74.794 11.9297 74.0003 11.6247 73.3367 11.0149C72.673 10.3961 72.3412 9.65177 72.3412 8.78187C72.3412 7.92093 72.673 7.18555 73.3367 6.57572C74.0003 5.95693 74.794 5.64753 75.7177 5.64753C76.6504 5.64753 77.444 5.95693 78.0987 6.57572C78.7623 7.18555 79.0942 7.92093 79.0942 8.78187C79.0942 9.65177 78.7623 10.3961 78.0987 11.0149C77.444 11.6247 76.6504 11.9297 75.7177 11.9297ZM94.8499 14.3376V19.1803H81.8148V14.3376H94.8499ZM84.5456 9.38721H91.1237V28.5026C91.1237 28.9062 91.1865 29.2335 91.312 29.4846C91.4465 29.7268 91.6394 29.9017 91.8905 30.0093C92.1416 30.1079 92.442 30.1572 92.7917 30.1572C93.0429 30.1572 93.3074 30.1348 93.5854 30.09C93.8724 30.0362 94.0876 29.9913 94.2311 29.9555L95.2266 34.7041C94.9127 34.7937 94.4688 34.9058 93.8948 35.0404C93.3298 35.1749 92.6527 35.2601 91.8636 35.2959C90.321 35.3677 88.9983 35.1883 87.8952 34.7579C86.8011 34.3184 85.9626 33.6369 85.3796 32.7131C84.8057 31.7894 84.5277 30.6281 84.5456 29.2291V9.38721ZM115.987 20.6466L109.947 20.808C109.884 20.3776 109.713 19.9964 109.435 19.6646C109.157 19.3238 108.794 19.0593 108.346 18.8709C107.906 18.6736 107.395 18.575 106.812 18.575C106.05 18.575 105.4 18.7274 104.862 19.0324C104.333 19.3373 104.072 19.7498 104.081 20.27C104.072 20.6735 104.234 21.0233 104.566 21.3192C104.906 21.6152 105.512 21.8528 106.382 22.0322L110.364 22.7855C112.426 23.1801 113.96 23.8348 114.964 24.7495C115.978 25.6642 116.489 26.8749 116.498 28.3816C116.489 29.7985 116.067 31.0316 115.233 32.0809C114.408 33.1302 113.278 33.9463 111.843 34.5292C110.408 35.1031 108.767 35.3901 106.92 35.3901C103.969 35.3901 101.642 34.7848 99.9382 33.5741C98.2432 32.3544 97.2747 30.7222 97.0325 28.6775L103.53 28.5161C103.673 29.2694 104.046 29.8434 104.646 30.238C105.247 30.6326 106.014 30.8299 106.947 30.8299C107.79 30.8299 108.476 30.6729 109.005 30.359C109.534 30.0451 109.803 29.6281 109.812 29.108C109.803 28.6416 109.597 28.2695 109.193 27.9915C108.79 27.7045 108.157 27.4803 107.296 27.3189L103.691 26.6328C101.62 26.2561 100.077 25.5611 99.0638 24.5477C98.0504 23.5254 97.5482 22.225 97.5572 20.6466C97.5482 19.2655 97.9159 18.0862 98.6602 17.1087C99.4046 16.1222 100.463 15.3689 101.835 14.8488C103.207 14.3286 104.826 14.0685 106.691 14.0685C109.489 14.0685 111.695 14.6559 113.31 15.8308C114.924 16.9966 115.816 18.6019 115.987 20.6466Z" fill="white"/>
<path d="M44.0851 35H41.8498V37.2353H44.0851V35ZM44.0851 7.45011V5.21481H41.8498V7.45011H44.0851ZM50.7439 7.45011H52.9792V5.21481H50.7439V7.45011ZM50.7439 18.5077H48.5086V20.743H50.7439V18.5077ZM61.5997 18.5077V20.743H63.835V18.5077H61.5997ZM61.5997 7.45011V5.21481H59.3644V7.45011H61.5997ZM68.245 7.45011H70.4803V5.21481H68.245V7.45011ZM68.245 35V37.2353H70.4803V35H68.245ZM61.5997 35H59.3644V37.2353H61.5997V35ZM61.5997 23.9289H63.835V21.6936H61.5997V23.9289ZM50.7439 23.9289V21.6936H48.5086V23.9289H50.7439ZM50.7439 35V37.2353H52.9792V35H50.7439ZM46.3204 35V7.45011H41.8498V35H46.3204ZM44.0851 9.6854H50.7439V5.21481H44.0851V9.6854ZM48.5086 7.45011V18.5077H52.9792V7.45011H48.5086ZM50.7439 20.743H61.5997V16.2724H50.7439V20.743ZM63.835 18.5077V7.45011H59.3644V18.5077H63.835ZM61.5997 9.6854H68.245V5.21481H61.5997V9.6854ZM66.0097 7.45011V35H70.4803V7.45011H66.0097ZM68.245 32.7647H61.5997V37.2353H68.245V32.7647ZM63.835 35V23.9289H59.3644V35H63.835ZM61.5997 21.6936H50.7439V26.1642H61.5997V21.6936ZM48.5086 23.9289V35H52.9792V23.9289H48.5086ZM50.7439 32.7647H44.0851V37.2353H50.7439V32.7647ZM72.4219 35H70.1866V37.2353H72.4219V35ZM72.4219 14.3376V12.1023H70.1866V14.3376H72.4219ZM79 14.3376H81.2353V12.1023H79V14.3376ZM79 35V37.2353H81.2353V35H79ZM73.3367 11.0149L71.8123 12.6498L71.8182 12.6553L71.8242 12.6608L73.3367 11.0149ZM73.3367 6.57572L74.8491 8.22163L74.8551 8.21613L74.8611 8.21058L73.3367 6.57572ZM78.0987 6.57572L76.5632 8.20019L76.5747 8.21099L76.5862 8.22163L78.0987 6.57572ZM78.0987 11.0149L79.6223 12.6505L79.6231 12.6498L78.0987 11.0149ZM74.6572 35V14.3376H70.1866V35H74.6572ZM72.4219 16.5729H79V12.1023H72.4219V16.5729ZM76.7647 14.3376V35H81.2353V14.3376H76.7647ZM79 32.7647H72.4219V37.2353H79V32.7647ZM75.7177 9.69436C75.3387 9.69436 75.0891 9.58949 74.8491 9.36901L71.8242 12.6608C72.9115 13.66 74.2492 14.165 75.7177 14.165V9.69436ZM74.8611 9.38006C74.6288 9.16352 74.5765 9.00233 74.5765 8.78187H70.1059C70.1059 10.3012 70.7172 11.6287 71.8123 12.6498L74.8611 9.38006ZM74.5765 8.78187C74.5765 8.5789 74.6218 8.43055 74.8491 8.22163L71.8242 4.92981C70.7243 5.94055 70.1059 7.26296 70.1059 8.78187H74.5765ZM74.8611 8.21058C75.1027 7.98529 75.3485 7.88282 75.7177 7.88282V3.41223C74.2395 3.41223 72.8979 3.92856 71.8123 4.94087L74.8611 8.21058ZM75.7177 7.88282C76.1017 7.88282 76.3395 7.98875 76.5632 8.20019L79.6342 4.95125C78.5485 3.9251 77.1991 3.41223 75.7177 3.41223V7.88282ZM76.5862 8.22163C76.8136 8.43055 76.8589 8.5789 76.8589 8.78187H81.3294C81.3294 7.26296 80.7111 5.94055 79.6112 4.92981L76.5862 8.22163ZM76.8589 8.78187C76.8589 9.00233 76.8065 9.16352 76.5743 9.38006L79.6231 12.6498C80.7181 11.6287 81.3294 10.3012 81.3294 8.78187H76.8589ZM76.5751 9.3793C76.3532 9.58606 76.1114 9.69436 75.7177 9.69436V14.165C77.1893 14.165 78.5349 13.6634 79.6223 12.6505L76.5751 9.3793ZM94.8499 14.3376H97.0852V12.1023H94.8499V14.3376ZM94.8499 19.1803V21.4156H97.0852V19.1803H94.8499ZM81.8148 19.1803H79.5795V21.4156H81.8148V19.1803ZM81.8148 14.3376V12.1023H79.5795V14.3376H81.8148ZM84.5456 9.38721V7.15192H82.3103V9.38721H84.5456ZM91.1237 9.38721H93.359V7.15192H91.1237V9.38721ZM91.312 29.4846L89.3127 30.4843L89.3344 30.5277L89.358 30.5702L91.312 29.4846ZM91.8905 30.0093L91.0099 32.0638L91.0413 32.0773L91.0731 32.0898L91.8905 30.0093ZM93.5854 30.09L93.9414 32.2968L93.9694 32.2922L93.9974 32.287L93.5854 30.09ZM94.2311 29.9555L96.4189 29.4968L95.9423 27.2236L93.689 27.7869L94.2311 29.9555ZM95.2266 34.7041L95.8407 36.8533L97.8412 36.2818L97.4143 34.2454L95.2266 34.7041ZM93.8948 35.0404L93.3847 32.864L93.3771 32.8658L93.8948 35.0404ZM91.8636 35.2959L91.7621 33.063L91.7597 33.0631L91.8636 35.2959ZM87.8952 34.7579L87.0621 36.8321L87.0723 36.8362L87.0826 36.8402L87.8952 34.7579ZM85.3796 32.7131L83.481 33.8929L83.4851 33.8995L83.4893 33.9061L85.3796 32.7131ZM84.5456 29.2291L86.7807 29.2577L86.7809 29.2434V29.2291H84.5456ZM92.6146 14.3376V19.1803H97.0852V14.3376H92.6146ZM94.8499 16.945H81.8148V21.4156H94.8499V16.945ZM84.0501 19.1803V14.3376H79.5795V19.1803H84.0501ZM81.8148 16.5729H94.8499V12.1023H81.8148V16.5729ZM84.5456 11.6225H91.1237V7.15192H84.5456V11.6225ZM88.8884 9.38721V28.5026H93.359V9.38721H88.8884ZM88.8884 28.5026C88.8884 29.112 88.9792 29.8173 89.3127 30.4843L93.3113 28.485C93.3553 28.5728 93.3659 28.6289 93.3661 28.6298C93.3663 28.631 93.3644 28.6216 93.3626 28.5997C93.3607 28.5779 93.359 28.5459 93.359 28.5026H88.8884ZM89.358 30.5702C89.7295 31.2388 90.2967 31.7582 91.0099 32.0638L92.771 27.9547C92.8618 27.9936 92.9632 28.0546 93.0592 28.1417C93.155 28.2285 93.2223 28.3204 93.266 28.3991L89.358 30.5702ZM91.0731 32.0898C91.6491 32.3161 92.2412 32.3925 92.7917 32.3925V27.922C92.7207 27.922 92.6807 27.9169 92.6662 27.9145C92.6522 27.9122 92.6691 27.9136 92.7078 27.9288L91.0731 32.0898ZM92.7917 32.3925C93.1754 32.3925 93.5596 32.3583 93.9414 32.2968L93.2295 27.8832C93.0552 27.9113 92.9103 27.922 92.7917 27.922V32.3925ZM93.9974 32.287C94.2947 32.2312 94.563 32.1766 94.7733 32.124L93.689 27.7869C93.6122 27.8061 93.4501 27.8411 93.1735 27.893L93.9974 32.287ZM92.0434 30.4141L93.0388 35.1627L97.4143 34.2454L96.4189 29.4968L92.0434 30.4141ZM94.6125 32.5548C94.35 32.6298 93.9467 32.7323 93.3847 32.864L94.4049 37.2167C94.9908 37.0794 95.4754 36.9577 95.8407 36.8533L94.6125 32.5548ZM93.3771 32.8658C92.9875 32.9586 92.4574 33.0314 91.7621 33.063L91.9651 37.5289C92.8481 37.4888 93.6722 37.3911 94.4126 37.2149L93.3771 32.8658ZM91.7597 33.0631C90.4389 33.1245 89.445 32.9632 88.7078 32.6755L87.0826 36.8402C88.5515 37.4135 90.2031 37.6109 91.9674 37.5288L91.7597 33.0631ZM88.7283 32.6836C88.0339 32.4047 87.5817 32.0141 87.27 31.5202L83.4893 33.9061C84.3434 35.2596 85.5683 36.2321 87.0621 36.8321L88.7283 32.6836ZM87.2783 31.5334C86.9857 31.0626 86.7667 30.3509 86.7807 29.2577L82.3105 29.2004C82.2886 30.9053 82.6256 32.5162 83.481 33.8929L87.2783 31.5334ZM86.7809 29.2291V9.38721H82.3103V29.2291H86.7809ZM115.987 20.6466L116.046 22.8811L118.411 22.8179L118.214 20.461L115.987 20.6466ZM109.947 20.808L107.735 21.1306L108.021 23.0956L110.006 23.0425L109.947 20.808ZM109.435 19.6646L107.703 21.0776L107.713 21.0889L107.722 21.1002L109.435 19.6646ZM108.346 18.8709L107.43 20.9101L107.455 20.9213L107.48 20.9318L108.346 18.8709ZM104.862 19.0324L103.76 17.0876L103.753 17.0916L103.746 17.0956L104.862 19.0324ZM104.081 20.27L106.316 20.3196L106.317 20.2755L106.316 20.2314L104.081 20.27ZM104.566 21.3192L103.078 22.9874L103.089 22.9972L103.1 23.0069L104.566 21.3192ZM106.382 22.0322L105.93 24.2214L105.948 24.2251L105.966 24.2285L106.382 22.0322ZM110.364 22.7855L110.784 20.59L110.779 20.5892L110.364 22.7855ZM114.964 24.7495L113.459 26.4022L113.466 26.4088L114.964 24.7495ZM116.498 28.3816L118.733 28.3957L118.733 28.382L118.733 28.3683L116.498 28.3816ZM115.233 32.0809L113.483 30.69L113.476 30.6992L115.233 32.0809ZM111.843 34.5292L112.673 36.6046L112.685 36.6001L111.843 34.5292ZM99.9382 33.5741L98.6326 35.3885L98.6435 35.3962L99.9382 33.5741ZM97.0325 28.6775L96.977 26.4429L94.5242 26.5038L94.8127 28.9404L97.0325 28.6775ZM103.53 28.5161L105.726 28.0978L105.371 26.2344L103.474 26.2815L103.53 28.5161ZM104.646 30.238L105.873 28.3695L105.873 28.3695L104.646 30.238ZM109.005 30.359L107.864 28.4366L107.864 28.4366L109.005 30.359ZM109.812 29.108L112.047 29.1465L112.048 29.1058L112.047 29.065L109.812 29.108ZM109.193 27.9915L107.898 29.8131L107.911 29.8228L107.925 29.8322L109.193 27.9915ZM107.296 27.3189L106.879 29.5147L106.885 29.5159L107.296 27.3189ZM103.691 26.6328L104.109 24.4369L104.1 24.4352L104.091 24.4336L103.691 26.6328ZM99.0638 24.5477L97.4762 26.1214L97.4832 26.1283L99.0638 24.5477ZM97.5572 20.6466L99.7924 20.6593L99.7925 20.6457L99.7924 20.6321L97.5572 20.6466ZM98.6602 17.1087L100.439 18.4629L100.445 18.4551L98.6602 17.1087ZM101.835 14.8488L101.043 12.7586L101.043 12.7586L101.835 14.8488ZM113.31 15.8308L111.994 17.6381L112.001 17.6429L113.31 15.8308ZM115.927 18.4121L109.887 18.5735L110.006 23.0425L116.046 22.8811L115.927 18.4121ZM112.158 20.4855C112.036 19.6471 111.694 18.8801 111.149 18.2291L107.722 21.1002C107.728 21.1076 107.731 21.1118 107.732 21.1128C107.732 21.1137 107.732 21.1131 107.731 21.1116C107.73 21.1101 107.73 21.1098 107.731 21.1117C107.731 21.1136 107.733 21.1195 107.735 21.1306L112.158 20.4855ZM111.167 18.2516C110.634 17.5981 109.961 17.1248 109.211 16.81L107.48 20.9318C107.627 20.9937 107.68 21.0496 107.703 21.0776L111.167 18.2516ZM109.261 16.8317C108.48 16.481 107.646 16.3397 106.812 16.3397V20.8103C107.145 20.8103 107.333 20.8663 107.43 20.9101L109.261 16.8317ZM106.812 16.3397C105.753 16.3397 104.704 16.5527 103.76 17.0876L105.964 20.9771C106.096 20.9022 106.347 20.8103 106.812 20.8103V16.3397ZM103.746 17.0956C102.659 17.7219 101.821 18.819 101.846 20.3085L106.316 20.2314C106.319 20.3759 106.278 20.5759 106.161 20.7625C106.054 20.9318 105.95 20.9849 105.978 20.9691L103.746 17.0956ZM101.847 20.2203C101.822 21.3495 102.313 22.3057 103.078 22.9874L106.054 19.651C106.081 19.6759 106.159 19.755 106.225 19.8982C106.294 20.0471 106.319 20.198 106.316 20.3196L101.847 20.2203ZM103.1 23.0069C103.896 23.698 104.983 24.0261 105.93 24.2214L106.833 19.8429C106.481 19.7704 106.242 19.6977 106.092 19.6387C105.931 19.5755 105.945 19.5564 106.031 19.6315L103.1 23.0069ZM105.966 24.2285L109.948 24.9818L110.779 20.5892L106.797 19.8358L105.966 24.2285ZM109.944 24.981C111.805 25.337 112.883 25.8773 113.459 26.4022L116.469 23.0969C115.037 21.7922 113.048 21.0232 110.784 20.59L109.944 24.981ZM113.466 26.4088C113.962 26.8566 114.257 27.4437 114.262 28.3949L118.733 28.3683C118.721 26.3062 117.993 24.4719 116.462 23.0902L113.466 26.4088ZM114.262 28.3674C114.256 29.3148 113.988 30.0558 113.483 30.69L116.983 33.4718C118.147 32.0075 118.721 30.2823 118.733 28.3957L114.262 28.3674ZM113.476 30.6992C112.927 31.3971 112.135 31.9979 111.002 32.4583L112.685 36.6001C114.421 35.8946 115.889 34.8632 116.99 33.4626L113.476 30.6992ZM111.013 32.4538C109.888 32.9036 108.537 33.1548 106.92 33.1548V37.6254C108.997 37.6254 110.928 37.3026 112.673 36.6046L111.013 32.4538ZM106.92 33.1548C104.249 33.1548 102.432 32.6037 101.233 31.7519L98.6435 35.3962C100.852 36.9658 103.69 37.6254 106.92 37.6254V33.1548ZM101.244 31.7597C100.049 30.9002 99.4195 29.8269 99.2523 28.4146L94.8127 28.9404C95.1298 31.6176 96.437 33.8086 98.6326 35.3885L101.244 31.7597ZM97.088 30.9121L103.585 30.7507L103.474 26.2815L96.977 26.4429L97.088 30.9121ZM101.334 28.9343C101.582 30.238 102.276 31.3556 103.419 32.1064L105.873 28.3695C105.819 28.3335 105.801 28.3092 105.792 28.2954C105.781 28.2788 105.75 28.2246 105.726 28.0978L101.334 28.9343ZM103.419 32.1064C104.479 32.8021 105.706 33.0651 106.947 33.0651V28.5946C106.322 28.5946 106.016 28.463 105.873 28.3695L103.419 32.1064ZM106.947 33.0651C108.048 33.0651 109.166 32.8624 110.145 32.2815L107.864 28.4366C107.785 28.4834 107.531 28.5946 106.947 28.5946V33.0651ZM110.145 32.2815C111.199 31.6566 112.022 30.5945 112.047 29.1465L107.577 29.0695C107.579 28.9339 107.623 28.758 107.725 28.599C107.818 28.4554 107.901 28.4147 107.864 28.4366L110.145 32.2815ZM112.047 29.065C112.023 27.8367 111.423 26.8128 110.461 26.1507L107.925 29.8322C107.886 29.8051 107.783 29.7214 107.695 29.5627C107.605 29.4 107.579 29.2465 107.577 29.151L112.047 29.065ZM110.489 26.1698C109.691 25.6024 108.679 25.3039 107.708 25.1218L106.885 29.5159C107.233 29.5813 107.49 29.6511 107.669 29.7148C107.854 29.7805 107.912 29.8235 107.898 29.8131L110.489 26.1698ZM107.714 25.123L104.109 24.4369L103.273 28.8287L106.879 29.5147L107.714 25.123ZM104.091 24.4336C102.268 24.102 101.218 23.5406 100.644 22.9671L97.4832 26.1283C98.9365 27.5816 100.972 28.4103 103.291 28.832L104.091 24.4336ZM100.651 22.9741C100.098 22.4162 99.7865 21.7069 99.7924 20.6593L95.3219 20.6339C95.3099 22.7431 96.0024 24.6345 97.4763 26.1213L100.651 22.9741ZM99.7924 20.6321C99.7862 19.6807 100.031 18.9988 100.439 18.4629L96.8818 15.7545C95.8012 17.1737 95.3101 18.8504 95.3219 20.6611L99.7924 20.6321ZM100.445 18.4551C100.891 17.8637 101.575 17.338 102.627 16.9389L101.043 12.7586C99.3511 13.3998 97.9184 14.3808 96.8759 15.7624L100.445 18.4551ZM102.627 16.9389C103.688 16.5368 105.026 16.3038 106.691 16.3038V11.8332C104.625 11.8332 102.726 12.1204 101.043 12.7586L102.627 16.9389ZM106.691 16.3038C109.201 16.3038 110.888 16.8332 111.994 17.6381L114.625 14.0234C112.502 12.4787 109.777 11.8332 106.691 11.8332V16.3038ZM112.001 17.6429C113.068 18.4135 113.641 19.4151 113.759 20.8322L118.214 20.461C117.991 17.7887 116.78 15.5797 114.618 14.0187L112.001 17.6429Z" fill="#1F97CF" mask="url(#path-9-outside-2_6_12)"/>
</g>
<defs>
<filter id="filter0_dd_6_12" x="-3.10001" y="0.899994" width="41.4903" height="42.1842" filterUnits="userSpaceOnUse" color-interpolation-filters="sRGB">
<feFlood flood-opacity="0" result="BackgroundImageFix"/>
<feColorMatrix in="SourceAlpha" type="matrix" values="0 0 0 0 0 0 0 0 0 0 0 0 0 0 0 0 0 0 127 0" result="hardAlpha"/>
<feOffset dy="1"/>
<feGaussianBlur stdDeviation="1"/>
<feColorMatrix type="matrix" values="0 0 0 0 0.0627451 0 0 0 0 0.0941176 0 0 0 0 0.156863 0 0 0 0.06 0"/>
<feBlend mode="normal" in2="BackgroundImageFix" result="effect1_dropShadow_6_12"/>
<feColorMatrix in="SourceAlpha" type="matrix" values="0 0 0 0 0 0 0 0 0 0 0 0 0 0 0 0 0 0 127 0" result="hardAlpha"/>
<feOffset dy="1"/>
<feGaussianBlur stdDeviation="1.5"/>
<feColorMatrix type="matrix" values="0 0 0 0 0.0627451 0 0 0 0 0.0941176 0 0 0 0 0.156863 0 0 0 0.1 0"/>
<feBlend mode="normal" in2="effect1_dropShadow_6_12" result="effect2_dropShadow_6_12"/>
<feBlend mode="normal" in="SourceGraphic" in2="effect2_dropShadow_6_12" result="shape"/>
</filter>
<linearGradient id="paint0_linear_6_12" x1="17.6451" y1="2.88684" x2="17.6451" y2="39.0974" gradientUnits="userSpaceOnUse">
<stop stop-color="white"/>
<stop offset="1" stop-color="#D0D5DD"/>
</linearGradient>
<linearGradient id="paint1_linear_6_12" x1="7.87803" y1="28.0234" x2="27.8305" y2="8.45565" gradientUnits="userSpaceOnUse">
<stop stop-color="#0076C1"/>
<stop offset="0.0737" stop-color="#0B82C6"/>
<stop offset="0.2766" stop-color="#269ED3"/>
<stop offset="0.4546" stop-color="#36AFDA"/>
<stop offset="0.587" stop-color="#3CB5DD"/>
</linearGradient>
<linearGradient id="paint2_linear_6_12" x1="7.81137" y1="28.0687" x2="27.8236" y2="8.44234" gradientUnits="userSpaceOnUse">
<stop stop-color="#00A482"/>
<stop offset="1" stop-color="#79DD83"/>
</linearGradient>
<linearGradient id="paint3_linear_6_12" x1="24.1492" y1="15.9081" x2="28.2928" y2="12.1479" gradientUnits="userSpaceOnUse">
<stop stop-color="#00A482"/>
<stop offset="1" stop-color="#79DD83"/>
</linearGradient>
<clipPath id="clip0_6_12">
<rect width="211" height="42.4175" fill="white" transform="translate(0 0.291229)"/>
</clipPath>
</defs>
</svg>
